# xmcd
#
# Track frame offsets:
#	150
#	25439
#	49139
#	61265
#	73464
#	83551
#	98375
#	115091
#	136186
#	150936
#	162999
#	174111
#	191454
#	210039
#	227827
#	238903
#	263668
#
# Disc length: 3703
#
# Revision: 1
# Processed by: cddbd v1.5.1PL0 Copyright (c) Steve Scherf et al.
# Submitted via: dBpowerAMP V4.0
# Normalized: r0:DSETVAR2,TDELIM( - )
#
DISCID=d00e7511
DTITLE=Various Artist - Guitar Heroes 1
DYEAR=1900
DGENRE=Blues
TTITLE0=Jimi Hendrix featuring Lonnie Youngblood - Free Spirit
TTITLE1=Santana - Persuasion
TTITLE2=John Mayall - Lost and Gone
TTITLE3=Johnny Winter - Parchman Farm
TTITLE4=John Lee Hooker - Dimples
TTITLE5=Mitch Ryder - Little Latin Lupe Lu
TTITLE6=The Booze Brothers featuring Mark Knopfler - My Old Lady
TTITLE7=Johnny Winter - Raised on Rock
TTITLE8=John Mayall - Why Worry
TTITLE9=Johnny Guitar Watson - Gangster of Love
TTITLE10=Carl Perkins - Pink Pedal Pushers
TTITLE11=Jimi Hendrix featuring Lonnie Youngblood - Suspicious
TTITLE12=Santana - With a Little Help From My Friends
TTITLE13=Tony Joe White - So Hard To Handle
TTITLE14=The Yardbirds (with Eric Clapton) - For Your Love
TTITLE15=Mike Bloomfield - You Must Have Jesus
TTITLE16=Mitch Ryder - Sock It To Me-Baby!
EXTD=Guitar Heroes
EXTT0=
EXTT1=
EXTT2=
EXTT3=
EXTT4=
EXTT5=
EXTT6=
EXTT7=
EXTT8=
EXTT9=
EXTT10=
EXTT11=
EXTT12=
EXTT13=
EXTT14=
EXTT15=
EXTT16=
PLAYORDER=
